<svg xmlns="http://www.w3.org/2000/svg" viewBox="0 0 62.4 62.4"><title>Recurso 36</title><g id="Capa_2" data-name="Capa 2"><g id="Capa_1-2" data-name="Capa 1"><g id="_3gJU0m.tif" data-name="3gJU0m.tif"><path d="M33.5,62.4H28.3A29.4,29.4,0,0,1,12,55.7C3.2,48.6-.8,39.3.1,28.1A29.8,29.8,0,0,1,7.9,10.4,31,31,0,0,1,30.2,0,30.2,30.2,0,0,1,47,4.3,31.3,31.3,0,0,1,61.9,25.8c.2,1,.2,2,.5,3v4.8a5.7,5.7,0,0,0-.3,1.8A31.2,31.2,0,0,1,35.7,62.1,16.6,16.6,0,0,0,33.5,62.4ZM50.7,14.6A19.1,19.1,0,0,1,46,16.4a.9.9,0,0,1-1-.2,8,8,0,0,0-5-2.3,8.5,8.5,0,0,0-9.2,10c0,.3-.1.4-.5.4a23.8,23.8,0,0,1-16.6-8.4c-.4-.4-.5-.4-.7.1a8.6,8.6,0,0,0,2.1,10.2l.7.6a6,6,0,0,1-2-.3L12,25.8a8.7,8.7,0,0,0,6.6,8.4,8.6,8.6,0,0,1-3.6.2,8.5,8.5,0,0,0,8,5.9,17.6,17.6,0,0,1-12.4,3.6c.1.1.1.2.2.2l.4.3a23.7,23.7,0,0,0,14.7,3.1,22.9,22.9,0,0,0,16.8-9.2,24.8,24.8,0,0,0,5-15.5.8.8,0,0,1,.4-.8A15.4,15.4,0,0,0,50,20.3a11.8,11.8,0,0,0,1.7-2.2,20.7,20.7,0,0,1-4.3,1,10.1,10.1,0,0,0,3.1-3.7,2.4,2.4,0,0,0,.2-.8Z" style="fill:#e72f4e"/></g></g></g></svg>