<svg xmlns="http://www.w3.org/2000/svg" viewBox="0 0 60 60"><title>Recurso 34</title><g id="Capa_2" data-name="Capa 2"><g id="Capa_1-2" data-name="Capa 1"><g id="_2O3txD.tif" data-name="2O3txD.tif"><path d="M44.7,60H14.8a15.5,15.5,0,0,1-4.7-1.2C3.6,55.6.2,50.5.1,43.4-.1,34.5,0,25.6,0,16.7A16.7,16.7,0,0,1,2.1,8.5,16.5,16.5,0,0,1,16.9,0H43.1a18.7,18.7,0,0,1,3.4.3,16.3,16.3,0,0,1,13,12.4,11.7,11.7,0,0,1,.5,2.7V44.7a11.3,11.3,0,0,1-.3,1.8c-1.5,6.8-5.6,11.1-12.3,13A25.6,25.6,0,0,1,44.7,60ZM30.1,5.3H17a13.4,13.4,0,0,0-4,.6,11.1,11.1,0,0,0-7.6,11c-.1,8.7-.1,17.5,0,26.2A12.7,12.7,0,0,0,6,47a11,11,0,0,0,10.9,7.7H43.1a12.7,12.7,0,0,0,3.9-.6,11.1,11.1,0,0,0,7.7-10.9V16.8a11.1,11.1,0,0,0-4.8-9.4,11,11,0,0,0-6.8-2.1Z" style="fill:#e72f4e"/><path d="M45.5,30a15.5,15.5,0,1,1-30.9,0,15.5,15.5,0,0,1,30.9,0ZM30,19.9a10.1,10.1,0,1,0,.1,20.2A10.1,10.1,0,0,0,30,19.9Z" style="fill:#e72f4e"/><path d="M46.2,17.8a3.9,3.9,0,0,1-4-3.9,3.9,3.9,0,0,1,3.9-3.8,3.9,3.9,0,0,1,.1,7.7Z" style="fill:#e72f4e"/></g></g></g></svg>