<svg xmlns="http://www.w3.org/2000/svg" viewBox="0 0 61.6 61.2"><title>Recurso 35</title><g id="Capa_2" data-name="Capa 2"><g id="Capa_1-2" data-name="Capa 1"><g id="Rsk1dJ.tif"><path d="M35.6,50.5c0-3.3.1-6.7,0-10.1,0-.5.2-.7.7-.6h5.8c.5,0,.7-.1.8-.7l1.2-7.5c.1-.8.1-.8-.6-.8H36.2c-.4,0-.6-.1-.6-.5s0-3.4,0-5.1a5.9,5.9,0,0,1,.7-2.9,4.4,4.4,0,0,1,3.7-2c1.3-.1,2.7,0,4,0s.6-.1.6-.6V13.2c0-.3,0-.5-.4-.6-3.2-.4-6.5-.9-9.7-.2s-7.7,4.4-8.3,9.3a63.7,63.7,0,0,0-.2,7.6c0,1.5,0,1.5-1.6,1.5H18.7c-.4,0-.5.1-.5.6v7.8c0,.5.1.6.6.6h6.6c.5-.1.6.1.6.6V60.5c0,.8,0,.8-.7.6-12.2-2.6-20.4-9.8-24-21.7C-4,21.8,7.5,3.6,25.7.4A30.8,30.8,0,0,1,43.5,58.9a29.6,29.6,0,0,1-7.3,2.3c-.5.1-.6-.1-.6-.6C35.7,57.3,35.6,53.9,35.6,50.5Z" style="fill:#e72f4e"/></g></g></g></svg>